<?xml version="1.0" encoding="utf-8"?>
<!-- Generator: Adobe Illustrator 24.0.1, SVG Export Plug-In . SVG Version: 6.00 Build 0)  -->
<svg version="1.1" id="ESCUDO" xmlns="http://www.w3.org/2000/svg" xmlns:xlink="http://www.w3.org/1999/xlink" x="0px" y="0px"
	 viewBox="0 0 595.28 841.89" style="enable-background:new 0 0 595.28 841.89;" xml:space="preserve">
<style type="text/css">
	.st0{fill:#ED1C24;}
</style>
<g>
	<g>
		<path d="M527.54,372.02c-16.52-9.15-33.74-17.38-51.18-24.45c-28.23-11.45-57.75-20.2-87.73-26c-59.38-11.5-121.36-11.5-180.74,0
			c-29.98,5.8-59.5,14.55-87.74,26c-17.43,7.07-34.65,15.3-51.18,24.45c-2.82,1.56-4.57,4.53-4.57,7.76l0,83.58
			c0,3.23,1.75,6.2,4.57,7.76c16.54,9.16,33.76,17.39,51.18,24.46c28.23,11.45,57.75,20.2,87.74,26
			c29.69,5.75,60.09,8.66,90.37,8.66c30.28,0,60.68-2.91,90.37-8.66c29.99-5.8,59.5-14.55,87.74-26
			c17.43-7.07,34.65-15.3,51.18-24.46c2.82-1.56,4.57-4.53,4.57-7.76v-83.58C532.11,376.55,530.36,373.58,527.54,372.02z
			 M176.16,421.57c78.74-26.11,165.46-26.11,244.19,0C341.62,447.68,254.9,447.68,176.16,421.57z"/>
		<path class="st0" d="M515.5,462.98c-22.14-14.89-45.48-27.27-69.63-37.11c-94.53,37.64-200.71,37.64-295.23,0
			c-24.15,9.85-47.48,22.23-69.63,37.11c14.3,7.66,29.05,14.62,43.97,20.67c27.47,11.14,56.18,19.65,85.35,25.29
			c57.78,11.19,118.08,11.18,175.85,0c29.17-5.65,57.89-14.16,85.35-25.29C486.45,477.6,501.2,470.63,515.5,462.98z"/>
		<path class="st0" d="M386.18,334.19c-57.77-11.18-118.07-11.18-175.85,0c-29.17,5.65-57.88,14.16-85.35,25.29
			c-16.23,6.58-32.27,14.2-47.72,22.65v73.66c66.57-44.54,143.78-66.82,220.99-66.82c77.21,0,154.43,22.27,220.99,66.82v-68.45v-5.2
			c-15.44-8.45-31.48-16.06-47.72-22.65C444.07,348.35,415.35,339.84,386.18,334.19z"/>
	</g>
	<g>
		<path d="M163.33,448.7l5.33,1.85l1.16,29.68l-6.04-2.1l-0.06-5.51l-10.43-3.63l-3.43,4.3l-5.57-1.94L163.33,448.7z M163.69,467.64
			l-0.07-7.01c-0.04-2.52,0.19-4.33,0.15-5l-0.08-0.03c-0.42,0.56-1.46,2.18-2.94,4.03l-4.4,5.46L163.69,467.64z"/>
		<path d="M182.42,455.17l6.1,1.61l1.38,17.5c0.18,2.24,0.19,4.3,0.19,4.82l0.08,0.02c0.29-0.44,1.37-2.26,2.54-4.1l9.66-14.58
			l5.7,1.51l-17.02,24.1l-5.38-1.43L182.42,455.17z"/>
		<path d="M216.55,463.65l15.67,2.93l-0.88,4.73l-10-1.87l-1.15,6.12l8.81,1.65l-0.84,4.49l-8.81-1.65l-1.33,7.1l10.28,1.92
			l-0.89,4.73l-15.96-2.99L216.55,463.65z"/>
		<path d="M242.98,468.2l5.85,0.7l-2.73,22.76l10.22,1.23l-0.57,4.7l-16.08-1.93L242.98,468.2z"/>
		<path d="M268.91,470.93l5.89,0.32l-1.26,22.89l10.28,0.56l-0.26,4.72l-16.17-0.89L268.91,470.93z"/>
		<path d="M302.52,471.92l5.64-0.1l11.33,27.45l-6.39,0.12l-1.96-5.16l-11.04,0.2l-1.73,5.22l-5.9,0.11L302.52,471.92z
			 M309.4,489.57l-2.48-6.56c-0.91-2.35-1.32-4.13-1.58-4.75l-0.08,0c-0.2,0.67-0.62,2.54-1.37,4.8l-2.25,6.64L309.4,489.57z"/>
		<path d="M327.51,471.05l5.86-0.6l11.37,13.23c1.89,2.19,3.07,3.9,3.37,4.33l0.08-0.01c-0.08-0.37-0.39-2.21-0.61-4.32l-1.49-14.54
			l5.29-0.54l2.82,27.51l-5.33,0.55l-12.27-14.19c-1.7-1.91-2.68-3.36-3.07-3.86l-0.08,0.01c0.08,0.37,0.36,1.92,0.54,3.66
			l1.62,15.73l-5.29,0.54L327.51,471.05z"/>
		<path d="M362.72,466.82l15.69-2.85l0.86,4.74l-10.01,1.81l1.11,6.13l8.83-1.6l0.81,4.49l-8.82,1.6l1.29,7.11l10.29-1.87l0.86,4.74
			l-15.97,2.89L362.72,466.82z"/>
		<path d="M388.87,461.78l8.08-2.1c10.53-2.74,16.69,1.32,18.7,9.04c2.01,7.71-1.29,15.01-11.93,17.78l-7.88,2.05L388.87,461.78z
			 M402.97,481.84c6.03-1.57,8.28-5.46,6.73-11.4c-1.56-5.99-5.18-7.87-11.53-6.22l-2.45,0.64l4.6,17.68L402.97,481.84z"/>
		<path d="M427.57,450.63l5.34-1.85l19.31,22.56l-6.04,2.1l-3.47-4.29l-10.43,3.63l-0.02,5.5l-5.57,1.94L427.57,450.63z
			 M439.61,465.26l-4.4-5.46c-1.6-1.95-2.54-3.51-2.98-4.02l-0.08,0.03c0.02,0.7,0.2,2.61,0.19,4.99l-0.07,7.01L439.61,465.26z"/>
	</g>
	<g>
		<path d="M258.56,412.52h9.49v2.88h-5.99v4.05h5.27v2.74h-5.27v6.88h-3.51V412.52z"/>
		<g>
			<path d="M288.47,412.52h5.52c3.06,0,5.71,0.99,5.71,4.12c0,2.14-1.14,3.33-2.93,3.8v0.05c1.96,0.3,3.63,1.62,3.63,3.98
				c0,3.38-2.71,4.6-6.48,4.6h-5.44V412.52z M293.53,419.33c1.89,0,2.71-0.67,2.71-2.14c0-1.37-0.89-1.99-2.63-1.99h-1.69v4.12
				H293.53z M293.76,426.38c2.01,0,3.08-0.62,3.08-2.21c0-1.54-0.89-2.34-2.93-2.34h-1.99v4.55H293.76z"/>
		</g>
		<path d="M276.06,427.18c0-1.19,1-2.11,2.21-2.11c1.22,0,2.19,0.92,2.19,2.11c0,1.19-0.97,2.14-2.19,2.14
			C277.06,429.32,276.06,428.37,276.06,427.18z"/>
		<path d="M320.8,420.77c0-4.5,2.96-8.55,8.55-8.55c2.16,0,3.68,0.47,4.97,1.32l-1.57,2.56c-0.92-0.59-1.94-0.97-3.46-0.97
			c-3.1,0-4.77,2.48-4.77,5.54c0,3.15,1.59,5.77,4.82,5.77c1.79,0,2.88-0.62,3.75-1.27l1.44,2.46c-0.84,0.77-2.83,1.74-5.24,1.74
			C323.66,429.37,320.8,425.27,320.8,420.77z"/>
		<path d="M308.4,427.18c0-1.19,0.99-2.11,2.21-2.11c1.22,0,2.19,0.92,2.19,2.11c0,1.19-0.97,2.14-2.19,2.14
			C309.39,429.32,308.4,428.37,308.4,427.18z"/>
		<path d="M342.55,427.18c0-1.19,0.99-2.11,2.21-2.11c1.22,0,2.19,0.92,2.19,2.11c0,1.19-0.97,2.14-2.19,2.14
			C343.54,429.32,342.55,428.37,342.55,427.18z"/>
	</g>
	<g>
		<path d="M109.83,383.89l5.35-2.38l11.21,25.28l-5.35,2.37L109.83,383.89z"/>
		<path d="M128.06,375.97l5.53-2.04l14.31,9.98c2.38,1.64,3.94,3.01,4.34,3.36l0.08-0.03c-0.17-0.34-0.93-2.05-1.67-4.03
			l-5.06-13.71l4.99-1.84l9.58,25.94l-5.02,1.86l-15.41-10.69c-2.12-1.43-3.43-2.58-3.93-2.97l-0.08,0.03
			c0.17,0.33,0.83,1.77,1.44,3.41l5.48,14.84l-4.99,1.84L128.06,375.97z"/>
		<path d="M163.86,363.39l8.04-2.24c10.48-2.92,16.71,1.03,18.85,8.71c2.14,7.68-1.02,15.03-11.62,17.98l-7.84,2.19L163.86,363.39z
			 M178.31,383.19c6-1.67,8.18-5.6,6.53-11.52c-1.66-5.96-5.32-7.79-11.64-6.02l-2.44,0.68l4.91,17.6L178.31,383.19z"/>
		<path d="M198.87,354.26l15.62-3.18l0.96,4.72l-9.97,2.03l1.24,6.1l8.79-1.79l0.91,4.48l-8.79,1.79l1.44,7.08l10.26-2.09l0.96,4.72
			l-15.91,3.24L198.87,354.26z"/>
		<path d="M227.05,348.93l9.01-1.23c5.96-0.81,10.87,1.33,11.67,7.21c0.81,5.97-3.09,9.6-9.92,10.53l-2.51,0.34l1.33,9.75
			l-5.84,0.79L227.05,348.93z M237.29,361.03c3.66-0.5,5.02-2.19,4.61-5.24c-0.38-2.76-2.11-4.07-5.68-3.59l-2.72,0.37l1.2,8.8
			L237.29,361.03z"/>
		<path d="M258.2,345.18l15.9-1.11l0.34,4.8l-10.15,0.71l0.43,6.22l8.95-0.63l0.32,4.55l-8.94,0.63l0.5,7.21l10.44-0.73l0.34,4.8
			l-16.2,1.14L258.2,345.18z"/>
		<path d="M287.02,343.49l5.9,0.02l9.93,14.35c1.66,2.37,2.65,4.2,2.9,4.66h0.08c-0.04-0.37-0.16-2.24-0.16-4.36l0.04-14.61
			l5.31,0.01l-0.07,27.65l-5.35-0.01l-10.72-15.39c-1.49-2.08-2.32-3.62-2.65-4.16h-0.08c0.04,0.37,0.16,1.95,0.16,3.7l-0.04,15.82
			l-5.31-0.01L287.02,343.49z"/>
		<path d="M324.94,344.19l8.31,0.7c10.84,0.91,15.31,6.78,14.64,14.73c-0.66,7.94-6.19,13.73-17.16,12.81l-8.11-0.68L324.94,344.19z
			 M331.59,367.79c6.21,0.52,9.62-2.41,10.13-8.53c0.51-6.17-2.28-9.15-8.81-9.7l-2.52-0.21l-1.52,18.21L331.59,367.79z"/>
		<path d="M360.97,347.88l5.79,0.84l-3.98,27.36l-5.8-0.84L360.97,347.88z"/>
		<path d="M380.43,350.95l15.63,3.13l-0.95,4.73l-9.97-2l-1.22,6.11l8.79,1.76l-0.9,4.48l-8.79-1.76l-1.42,7.08l10.26,2.05
			l-0.94,4.72L375,378.06L380.43,350.95z"/>
		<path d="M408.68,356.95l5.68,1.58l5.78,16.47c0.97,2.72,1.44,4.75,1.56,5.26l0.08,0.02c0.06-0.37,0.44-2.21,1.01-4.25l3.91-14.08
			l5.12,1.42l-7.39,26.65l-5.16-1.43L413,370.9c-0.88-2.4-1.27-4.1-1.45-4.71l-0.08-0.02c-0.06,0.37-0.36,1.92-0.83,3.6l-4.23,15.24
			l-5.12-1.42L408.68,356.95z"/>
		<path d="M447.76,373.82l-7.19-2.58l1.62-4.53l19.9,7.13l-1.62,4.53l-7.15-2.56l-7.7,21.5l-5.55-1.99L447.76,373.82z"/>
		<path d="M472.05,377.87l14.64,6.32l-1.91,4.42l-9.34-4.03l-2.47,5.72l8.23,3.55l-1.81,4.19l-8.23-3.55l-2.86,6.63l9.61,4.15
			l-1.91,4.42l-14.9-6.43L472.05,377.87z"/>
	</g>
</g>
</svg>
