<?xml version="1.0" encoding="utf-8"?>
<!-- Generator: Adobe Illustrator 24.0.1, SVG Export Plug-In . SVG Version: 6.00 Build 0)  -->
<svg version="1.1" xmlns="http://www.w3.org/2000/svg" xmlns:xlink="http://www.w3.org/1999/xlink" x="0px" y="0px"
	 viewBox="0 0 595.28 595.28" style="enable-background:new 0 0 595.28 595.28;" xml:space="preserve">
<style type="text/css">
	.st0{fill:#ED1C24;}
	.st1{fill:#FFFFFF;}
</style>
<g id="FONDO">
	<rect class="st0" width="595.28" height="595.28"/>
</g>
<g id="ESCUDO">
	<g>
		<path class="st1" d="M280.62,279.87l-5.56-47.18c-0.48-3.64-0.81-5.01-2.26-6.49l-14.87,32.51L280.62,279.87z"/>
		<path class="st1" d="M530.75,116.97l-0.8-14.92h-14.94c-22.81,0-43.52-11.56-55.4-30.93l-10.45-17.04l-14.14,14.13
			c-16.84,16.83-39.23,26.1-63.04,26.1c-23.82,0-46.22-9.28-63.07-26.12l-11.15-11.15l-11.15,11.15
			c-16.84,16.84-39.24,26.12-63.07,26.12c-23.81,0-46.2-9.27-63.05-26.1l-14.14-14.13l-10.45,17.04
			c-11.87,19.37-32.58,30.93-55.4,30.93H65.58l-0.81,14.92c-6.09,112.68,19.79,210.47,76.94,290.64
			c47.68,66.89,107.16,107.1,148.66,129.06l7.37,3.9l7.37-3.9c41.5-21.96,100.98-62.17,148.67-129.05
			C510.95,327.44,536.85,229.66,530.75,116.97z M183.82,128.01c18.53,0,32.21,11.49,36.51,37.92c0.09,3.1-1.15,5.97-8.52,4.84
			c-7.4-1.14-8.76-3.57-9.33-6.93c-1.47-8.82-4.63-17.45-11.6-17.45c-6.97,0-10.59,6.32-10.79,13.33
			c-1.07,37.46,3.47,47.44,13.26,47.44c7.9,0,10.5-5.37,9.71-16.45c-0.24-3.4-0.07-5.79,7.32-6.93c8.5-1.31,9.18,2.87,8.53,6.35
			c-7.05,22.68-18.71,29.65-35.1,29.65c-20.39,0-36.91-15.27-36.91-45.88C146.91,143.28,163.43,128.01,183.82,128.01z M135.4,119.85
			c4.57,0,8.27,3.7,8.27,8.27c0,4.57-3.7,8.27-8.27,8.27c-4.56,0-8.28-3.7-8.28-8.27C127.12,123.55,130.83,119.85,135.4,119.85z
			 M297.75,522.39C225.03,483.91,89.56,384.64,80.19,172.21l307.49,286.74C355.4,488.91,322.85,509.12,297.75,522.39z
			 M261.57,210.26c-1.4-5.54,0,0-1.4-5.54c-1.28-5.07,1.94-7.98,5.78-4.15l38.25,35.64c2.56,2.39,1.43,6.39-0.21,7.22
			c-1.81,0.91-2.08,0.95-1.91,2.64l8.73,74.06c0.86,7.26,3.59,13.17,5.31,17.2c1.75,4.08-0.84,7.7-2.73,5.8l0.19,0.28
			c-1.9-1.9-38.03-35.46-38.03-35.46c-1.56-1.47-0.37-5.23,2.96-5.23c4.35,0,4.72-0.63,4.41-3.27c-0.7-5.97-0.7-5.97-0.7-5.97
			l-28.18-26.28c-3.18,6.95-3.18,6.96-1.46,10.98c1.75,4.08-0.83,7.7-2.73,5.8c-1.9-1.89-15.63-14.57-15.63-14.57
			c-1.56-1.47-0.37-5.23,2.97-5.23c4.36,0,5.32,0.02,6.92-3.46c17.67-38.6,0,0,17.66-38.6C263.46,218.41,262.54,214.1,261.57,210.26
			z M231.16,225.53c-4.57,0-8.27-3.71-8.27-8.27c0-4.57,3.71-8.27,8.27-8.27c4.57,0,8.27,3.7,8.27,8.27
			C239.44,221.82,235.73,225.53,231.16,225.53z M326.58,314.01c0-4.57,3.7-8.27,8.27-8.27c4.57,0,8.27,3.7,8.27,8.27
			c0,4.57-3.71,8.27-8.27,8.27C330.28,322.28,326.58,318.58,326.58,314.01z M394.01,407.97c2.33,4.67-1.21,9.56-5.05,5.72
			l-32.46-30.36c-3.04-3.04-1.72-6.7,0.25-7.28c1.99-0.59,4.57-1.11,4.57-4.14v-60.6c0-5.61-2.86-11.68-5.18-16.31
			c-2.33-4.68,1.21-9.56,5.05-5.72l32.46,30.35c3.05,3.04,1.72,6.7-0.25,7.28c-1.99,0.59-4.57,1.12-4.57,4.14v60.6
			C388.84,397.27,391.7,403.34,394.01,407.97z M415.91,397.87c-4.57,0-8.27-3.71-8.27-8.27c0-4.57,3.7-8.27,8.27-8.27
			c4.56,0,8.27,3.71,8.27,8.27C424.18,394.17,420.47,397.87,415.91,397.87z M472.2,346.41L218.64,109.97
			c28.48,1.32,57.38-8.89,79.12-30.63c40.98,40.98,107.41,40.99,148.4,0.03c14.14,23.06,39.68,38.45,68.84,38.45
			C520.13,212.43,501.54,287.45,472.2,346.41z"/>
	</g>
</g>
</svg>
